<svg width="72" height="72" viewBox="0 0 72 72" fill="none" xmlns="http://www.w3.org/2000/svg">
<path fill-rule="evenodd" clip-rule="evenodd" d="M31.6195 28.5302C33.1434 27.3209 34.8847 26.4146 36.7495 25.8602C38.6159 25.2554 40.591 25.0609 42.5395 25.2902C42.6679 25.3208 42.8011 25.3245 42.931 25.3013C43.0609 25.278 43.1846 25.2283 43.2944 25.1551C43.4042 25.0819 43.4977 24.9868 43.5691 24.8759C43.6406 24.7649 43.6883 24.6404 43.7095 24.5102C43.74 24.3779 43.7429 24.2407 43.7181 24.1072C43.6933 23.9737 43.6413 23.8467 43.5653 23.7341C43.4893 23.6216 43.391 23.5259 43.2765 23.4529C43.1619 23.38 43.0336 23.3314 42.8995 23.3102C40.6634 22.8452 38.3556 22.8452 36.1195 23.3102C33.8548 23.7573 31.6898 24.6111 29.7295 25.8302C28.9113 26.2506 28.1916 26.8395 27.6176 27.5583C27.0436 28.2771 26.6284 29.1093 26.3995 30.0002C26.319 30.7149 26.4044 31.4385 26.6489 32.1149C26.8935 32.7913 27.2906 33.4022 27.8095 33.9002C28.4704 34.6414 29.2724 35.2433 30.1687 35.6709C31.065 36.0984 32.0376 36.3429 33.0295 36.3902C34.9727 36.4267 36.9086 36.1429 38.7595 35.5502C40.1841 35.0521 41.6925 34.8381 43.1995 34.9202C45.6595 35.3102 48.2695 36.8402 50.8495 37.3502C52.1901 37.6662 53.5922 37.6039 54.8995 37.1702C55.1899 37.0827 55.4337 36.8834 55.5771 36.6161C55.7206 36.3489 55.752 36.0356 55.6645 35.7452C55.577 35.4548 55.3777 35.211 55.1104 35.0676C54.8432 34.9241 54.5299 34.8927 54.2395 34.9802C53.3148 35.2203 52.3442 35.2203 51.4195 34.9802C48.8395 34.2602 46.2895 32.4602 43.8295 31.9802C41.8375 31.6196 39.7914 31.6912 37.8295 32.1902C36.3255 32.6069 34.7701 32.8089 33.2095 32.7902C32.1821 32.7285 31.2167 32.278 30.5095 31.5302C30.1495 31.1402 29.9095 30.9002 30.0295 30.6002C30.3082 29.7492 30.8691 29.0189 31.6195 28.5302Z" fill="#86B643" style="fill:#86B643;fill:color(display-p3 0.5255 0.7137 0.2627);fill-opacity:1;"/>
<path fill-rule="evenodd" clip-rule="evenodd" d="M66.6295 24.48C63.4195 23.13 60.6295 21.48 57.4795 19.95C55.4032 18.8931 53.2341 18.0294 50.9995 17.37C47.2387 16.3267 43.2914 16.1422 39.4495 16.83C39.9993 14.7541 40.3805 12.6372 40.5895 10.5C40.7677 8.62786 40.687 6.74008 40.3495 4.89C39.5995 1.32 37.6795 0 35.9995 0C34.8792 0.10507 33.8023 0.486132 32.8652 1.10912C31.9281 1.7321 31.16 2.57759 30.6295 3.57L28.4995 7.32C27.0187 10.6477 25.7462 14.0643 24.6895 17.55C24.6895 17.55 24.4195 17.55 24.3295 17.55C21.7271 19.2663 19.4683 21.4539 17.6695 24C16.7367 25.2193 15.9229 26.5253 15.2395 27.9C14.5415 29.2999 13.9886 30.7675 13.5895 32.28C13.2849 33.4081 13.2156 34.5869 13.3859 35.7429C13.5562 36.899 13.9625 38.0077 14.5795 39C15.1767 39.7937 16.0622 40.3204 17.0446 40.4664C18.0271 40.6124 19.0275 40.3658 19.8295 39.78C18.9391 43.4574 18.4364 47.2179 18.3295 51C18.3554 51.4656 18.4257 51.9277 18.5395 52.38C18.6337 52.8624 18.7744 53.3346 18.9595 53.79C19.4095 54.8478 19.9727 55.8537 20.6395 56.79C21.0295 57.72 23.1295 58.26 26.8495 54.81C27.2401 54.4494 27.6012 54.0581 27.9295 53.64C28.2635 53.2241 28.5644 52.7828 28.8295 52.32C29.3455 51.2545 29.8061 50.163 30.2095 49.05C31.307 49.9989 32.5674 50.7409 33.9295 51.24C34.7297 51.5372 35.5681 51.719 36.4195 51.78C37.7205 51.8711 39.0277 51.7495 40.2895 51.42C40.5595 51.42 40.7695 51.09 41.0395 50.97C43.2033 52.3608 45.6994 53.148 48.2695 53.25C50.057 53.2312 51.8373 53.02 53.5795 52.62C55.9844 51.976 58.4299 51.4949 60.8995 51.18C61.2019 51.18 61.4919 51.0599 61.7056 50.8461C61.9194 50.6323 62.0395 50.3423 62.0395 50.04C62.0395 49.7377 61.9194 49.4477 61.7056 49.2339C61.4919 49.0201 61.2019 48.9 60.8995 48.9C57.8998 48.6795 54.8857 48.7498 51.8995 49.11L48.5095 49.44H46.3495C45.3404 49.4422 44.3341 49.3315 43.3495 49.11C43.6992 48.7456 43.9924 48.331 44.2195 47.88C44.6135 47.0366 44.6877 46.0789 44.4283 45.1849C44.169 44.2909 43.5937 43.5216 42.8095 43.02C42.8095 43.02 42.5395 43.02 42.3895 43.02C43.0775 42.5653 43.6643 41.9736 44.1134 41.2819C44.5624 40.5903 44.8641 39.8135 44.9995 39C45.1182 38.2432 45.0004 37.4683 44.6621 36.781C44.3238 36.0937 43.7816 35.5276 43.1095 35.16C42.866 35.0061 42.5731 34.9502 42.29 35.0034C42.0068 35.0567 41.7543 35.2152 41.5833 35.447C41.4122 35.6789 41.3353 35.9669 41.368 36.2532C41.4007 36.5394 41.5406 36.8027 41.7595 36.99C41.957 37.1663 42.0969 37.3978 42.1611 37.6546C42.2253 37.9114 42.2108 38.1816 42.1195 38.43C41.9214 38.8577 41.6253 39.2326 41.2553 39.5245C40.8852 39.8164 40.4516 40.017 39.9895 40.11C39.256 40.2481 38.5031 40.2481 37.7695 40.11L35.9695 39.93C35.0901 39.7992 34.2187 39.6189 33.3595 39.39V37.74C33.4267 37.6078 33.4642 37.4625 33.4695 37.3143C33.4748 37.1661 33.4477 37.0185 33.3901 36.8818C33.3325 36.7451 33.2457 36.6227 33.136 36.523C33.0262 36.4233 32.896 36.3487 32.7544 36.3045C32.6128 36.2602 32.4633 36.2474 32.3163 36.2668C32.1693 36.2863 32.0283 36.3376 31.9031 36.4171C31.7779 36.4967 31.6716 36.6026 31.5915 36.7274C31.5115 36.8523 31.4596 36.9931 31.4395 37.14C31.1395 37.68 29.2195 41.46 29.0695 41.94C28.9279 42.4528 28.8177 42.9738 28.7395 43.5C28.7249 43.7198 28.7249 43.9402 28.7395 44.16C27.9595 43.83 27.2995 43.44 26.5195 43.14C26.1957 42.9853 25.8527 42.8743 25.4995 42.81C25.1645 42.7308 24.8232 42.6806 24.4795 42.66C23.5495 42.66 22.7695 42.84 21.8695 42.9H21.6895C23.3095 36.57 24.9595 29.97 26.8495 23.49C28.1794 18.5414 29.874 13.6982 31.9195 9L33.5995 5.55C34.2895 4.38 35.0095 3.45 35.8495 3.42C36.6895 3.39 36.9595 4.23 37.3195 5.64C37.7088 7.20872 37.8704 8.82526 37.7995 10.44C37.6973 12.9864 37.3558 15.5175 36.7795 18C36.7153 18.2939 36.7667 18.6013 36.9231 18.8583C37.0795 19.1152 37.329 19.3021 37.6195 19.38C37.8576 19.4246 38.1038 19.3901 38.3204 19.2818C38.5371 19.1735 38.7124 18.9973 38.8195 18.78C38.9459 18.8234 39.0832 18.8234 39.2095 18.78C41.9382 18.7867 44.6497 19.2116 47.2495 20.04C48.2095 20.34 49.1695 20.7 50.0995 21.03C51.5695 21.54 53.0995 22.11 54.4495 22.65C58.1695 24.06 61.9195 25.5 65.8795 26.58C66.1701 26.676 66.4866 26.6544 66.7614 26.5199C67.0362 26.3853 67.2473 26.1484 67.3495 25.86C67.4345 25.5815 67.4066 25.2808 67.272 25.0227C67.1373 24.7645 66.9066 24.5696 66.6295 24.48ZM19.9195 36C19.5554 36.4408 19.093 36.7901 18.5695 37.02C18.2305 37.1439 17.8586 37.1439 17.5195 37.02C17.2795 37.02 17.2795 36.63 17.1895 36.36C16.8611 35.2947 16.8611 34.1553 17.1895 33.09C17.6302 31.5481 18.1919 30.0434 18.8695 28.59C19.5271 27.0886 20.289 25.635 21.1495 24.24C21.8712 23.1879 22.663 22.1856 23.5195 21.24C23.5195 21.78 23.1895 22.26 23.0395 22.8C22.0495 26.79 21.2695 30.87 20.5795 34.8C20.4295 35.22 20.2195 35.61 19.9195 36ZM35.9995 43.8C37.5578 44.2492 39.2113 44.2492 40.7695 43.8C40.6948 44.0072 40.6835 44.232 40.7369 44.4457C40.7903 44.6594 40.9061 44.8523 41.0695 45C41.277 45.2482 41.3907 45.5615 41.3907 45.885C41.3907 46.2085 41.277 46.5218 41.0695 46.77C40.8451 47.0671 40.5611 47.314 40.2356 47.4949C39.9101 47.6757 39.5504 47.7864 39.1795 47.82C38.274 48.0202 37.3461 48.1009 36.4195 48.06C35.4148 48.1072 34.4079 48.0367 33.4195 47.85C32.478 47.6469 31.5692 47.3137 30.7195 46.86C31.1095 46.14 31.4995 45.45 31.8295 44.73C32.0585 44.2457 32.2491 43.7442 32.3995 43.23C32.4737 42.9735 32.5338 42.7131 32.5795 42.45C33.6599 43.0385 34.8085 43.492 35.9995 43.8ZM21.2695 45C22.0037 45.5264 22.7758 45.9977 23.5795 46.41C23.9138 46.5649 24.2667 46.6759 24.6295 46.74C24.9989 46.7709 25.3702 46.7709 25.7395 46.74C26.6126 46.7147 27.4837 46.6447 28.3495 46.53V47.22C28.2572 47.4615 28.2572 47.7285 28.3495 47.97C27.3609 48.7432 26.4192 49.5747 25.5295 50.46C25.0261 51.0747 24.5554 51.7156 24.1195 52.38C23.6095 53.16 23.1595 53.97 22.6795 54.75C22.6795 54.05 22.6195 53.36 22.4995 52.68C22.4332 51.9499 22.3027 51.2271 22.1095 50.52C21.69 49.3257 21.1258 48.1872 20.4295 47.13C20.4295 47.13 20.6095 46.92 20.6395 46.8C20.8195 46.14 20.9995 45.45 21.1495 44.79C21.1795 45 21.2095 45 21.2695 45Z" fill="#86B643" style="fill:#86B643;fill:color(display-p3 0.5255 0.7137 0.2627);fill-opacity:1;"/>
<path fill-rule="evenodd" clip-rule="evenodd" d="M32.64 64.2601C29.2707 62.9449 25.5929 62.6324 22.05 63.3601L18.51 64.2601L14.7 64.8001C13.9156 64.8308 13.1304 64.7704 12.36 64.6201C11.6381 64.4688 10.9412 64.2163 10.29 63.8701C9.05997 63.2401 8.21997 62.4901 8.06997 61.5601C8.0099 60.9822 8.10631 60.3989 8.3491 59.8711C8.59188 59.3433 8.97211 58.8905 9.44997 58.5601C10.5912 57.5777 11.9171 56.8332 13.35 56.3701C14.8533 55.8965 16.4243 55.6736 18 55.7101C18.2367 55.669 18.4514 55.5457 18.6061 55.3618C18.7608 55.1779 18.8457 54.9454 18.8457 54.7051C18.8457 54.4648 18.7608 54.2322 18.6061 54.0483C18.4514 53.8645 18.2367 53.7411 18 53.7001C16.2255 53.5085 14.4316 53.6098 12.69 54.0001C10.8562 54.4001 9.12169 55.1653 7.58997 56.2501C6.62573 56.8375 5.83801 57.6744 5.30997 58.6724C4.78193 59.6704 4.53318 60.7924 4.58997 61.9201C4.75254 63.05 5.19057 64.1227 5.86545 65.0435C6.54033 65.9642 7.43135 66.7049 8.45997 67.2001C9.39104 67.7478 10.4039 68.1428 11.46 68.3701C12.5243 68.5963 13.6129 68.6871 14.7 68.6401C15.4948 68.6181 16.2869 68.5379 17.07 68.4001C17.82 68.4001 18.57 68.1001 19.32 67.9201L22.92 66.7501C25.6591 65.9242 28.5809 65.9242 31.32 66.7501C31.8 66.9601 32.25 67.1701 32.37 67.6201C32.49 68.0701 32.37 69.0601 31.5 70.1401C31.4094 70.2602 31.3433 70.3971 31.3056 70.5427C31.2678 70.6884 31.2592 70.8401 31.2801 70.9892C31.301 71.1382 31.351 71.2817 31.4273 71.4114C31.5037 71.5411 31.6048 71.6545 31.725 71.7451C31.8451 71.8357 31.982 71.9017 32.1277 71.9395C32.2733 71.9772 32.425 71.9859 32.5741 71.965C32.8751 71.9228 33.147 71.7627 33.33 71.5201C33.92 70.9299 34.3652 70.211 34.6307 69.4198C34.8962 68.6286 34.9746 67.7867 34.86 66.9601C34.7037 66.3778 34.4248 65.8357 34.0419 65.37C33.659 64.9044 33.181 64.5259 32.64 64.2601Z" fill="#86B643" style="fill:#86B643;fill:color(display-p3 0.5255 0.7137 0.2627);fill-opacity:1;"/>
</svg>
