<?xml version="1.0" standalone="no"?><!DOCTYPE svg PUBLIC "-//W3C//DTD SVG 1.1//EN" "http://www.w3.org/Graphics/SVG/1.1/DTD/svg11.dtd"><svg t="1751188742797" class="icon" viewBox="0 0 1024 1024" version="1.1" xmlns="http://www.w3.org/2000/svg" p-id="2103" xmlns:xlink="http://www.w3.org/1999/xlink" width="200" height="200"><path d="M857.728 1024H166.272c-62.336 0-113.024-50.688-113.024-113.024V113.024C53.248 50.688 103.936 0 166.272 0h691.584c62.336 0 113.024 50.688 113.024 113.024v797.952c-0.128 62.336-50.816 113.024-113.152 113.024zM166.272 66.432c-25.6 0-46.592 20.864-46.592 46.592v797.952c0 25.6 20.864 46.592 46.592 46.592h691.584c25.6 0 46.592-20.864 46.592-46.592V113.024c0-25.6-20.864-46.592-46.592-46.592H166.272z" fill="#2c2c2c" p-id="2104"></path><path d="M576.896 376.448c39.68-22.4 66.56-64.896 66.56-113.28 0-71.808-59.008-130.304-131.584-130.304s-131.456 58.496-131.456 130.304c0 48.512 26.88 90.88 66.56 113.28-75.136 26.496-129.024 97.664-129.024 181.12 0 18.304 14.848 33.28 33.28 33.28s33.28-14.848 33.28-33.28c0-69.248 57.216-125.696 127.488-125.696 70.4 0 127.488 56.32 127.488 125.696 0 18.304 14.848 33.28 33.28 33.28s33.28-14.848 33.28-33.28c0-83.456-54.016-154.624-129.152-181.12zM512 199.296c35.84 0 65.024 28.672 65.024 63.872S547.84 327.04 512 327.04c-35.84 0-65.024-28.672-65.024-63.872s29.184-63.872 65.024-63.872zM718.08 737.152H305.92c-18.304 0-33.28-14.848-33.28-33.28s14.848-33.28 33.28-33.28h412.16c18.304 0 33.28 14.848 33.28 33.28s-14.848 33.28-33.28 33.28zM718.08 880.768H305.92c-18.304 0-33.28-14.848-33.28-33.28s14.848-33.28 33.28-33.28h412.16c18.304 0 33.28 14.848 33.28 33.28s-14.848 33.28-33.28 33.28z" fill="#2c2c2c" p-id="2105"></path></svg>