<svg width="72" height="72" viewBox="0 0 72 72" fill="none" xmlns="http://www.w3.org/2000/svg">
<g clip-path="url(#clip0_167_482)">
<path fill-rule="evenodd" clip-rule="evenodd" d="M37.3204 30.8409L37.5004 28.2609C37.5527 27.2382 37.2941 26.2236 36.7586 25.3508C36.2231 24.4779 35.4358 23.7876 34.5004 23.3709C32.0709 22.6093 29.5459 22.1952 27.0004 22.1409C25.1674 21.9146 23.3135 21.9146 21.4804 22.1409C20.0526 22.3351 18.7154 22.9514 17.6404 23.9109C16.9405 24.5926 16.4422 25.4542 16.2004 26.4009C15.8859 27.96 15.775 29.5533 15.8704 31.1409C12.8704 31.1409 9.69041 31.4109 6.60041 31.4109C6.36967 31.4109 6.14838 31.5025 5.98523 31.6657C5.82207 31.8289 5.73041 32.0501 5.73041 32.2809C5.73041 32.5116 5.82207 32.7329 5.98523 32.8961C6.14838 33.0592 6.36967 33.1509 6.60041 33.1509C12.9904 33.6009 19.4104 33.9009 25.8604 33.9909H35.4304H44.9704C48.1504 33.9909 50.4904 34.3209 53.2504 34.6209C53.6949 36.537 53.8367 38.5109 53.6704 40.4709C53.7636 42.6606 53.024 44.8044 51.6004 46.4709C50.5465 46.8751 49.4291 47.0884 48.3004 47.1009L43.2604 47.6109L33.6004 48.3909V47.3409C33.4417 46.3741 33.0186 45.47 32.378 44.7287C31.7373 43.9875 30.904 43.4379 29.9704 43.1409C29.0388 42.8478 28.04 42.8459 27.1073 43.1354C26.1746 43.4248 25.3524 43.9919 24.7504 44.7609C23.9594 45.7694 23.4519 46.9707 23.2804 48.2409C23.2804 48.2409 23.2804 48.4809 23.2804 48.5709C21.0604 48.3909 16.3504 48.1509 12.1204 47.6409C10.6283 47.4973 9.14576 47.2669 7.68041 46.9509C6.91259 46.8497 6.17574 46.5836 5.52041 46.1709C4.20896 45.1499 3.35651 43.6501 3.15041 42.0009C2.89575 39.2237 2.94605 36.4271 3.30041 33.6609C3.33276 33.5406 3.3389 33.4148 3.31843 33.2919C3.29796 33.1691 3.25135 33.0521 3.18176 32.9488C3.11216 32.8455 3.0212 32.7583 2.91502 32.6932C2.80884 32.6281 2.68993 32.5866 2.56631 32.5714C2.44269 32.5562 2.31726 32.5678 2.19848 32.6053C2.07971 32.6427 1.97036 32.7053 1.87784 32.7886C1.78532 32.872 1.71178 32.9743 1.66219 33.0885C1.61261 33.2028 1.58813 33.3264 1.59041 33.4509C0.858475 36.3455 0.465835 39.3155 0.42041 42.3009C0.445726 44.6265 1.37033 46.852 3.00041 48.5109C4.95532 49.7389 7.20279 50.4225 9.51041 50.4909C13.967 50.7368 18.4338 50.7368 22.8904 50.4909C22.9299 51.4052 23.02 52.3166 23.1604 53.2209C23.1904 53.449 23.3066 53.6569 23.4852 53.8019C23.6637 53.947 23.891 54.0182 24.1204 54.0009C24.3405 53.9709 24.5408 53.8579 24.6803 53.685C24.8197 53.5121 24.8878 53.2923 24.8704 53.0709C24.7977 51.818 24.8581 50.561 25.0504 49.3209C25.1956 48.2682 25.6925 47.2955 26.4604 46.5609C26.7376 46.274 27.095 46.0775 27.4858 45.9972C27.8766 45.9169 28.2825 45.9565 28.6504 46.1109C29.0159 46.2407 29.3383 46.4691 29.5819 46.771C29.8255 47.0728 29.9807 47.4362 30.0304 47.8209C30.0304 48.3309 30.1804 48.8709 30.2404 49.4409C30.3301 50.2685 30.3301 51.1033 30.2404 51.9309C30.1341 52.7627 29.8474 53.5613 29.4004 54.2709C29.004 54.7735 28.5022 55.1831 27.9304 55.4709C27.7254 55.6198 27.4898 55.7212 27.2408 55.7679C26.9917 55.8146 26.7354 55.8054 26.4904 55.7409C26.3505 55.6548 26.2283 55.5428 26.1304 55.4109C25.964 55.1503 25.8137 54.8798 25.6804 54.6009C25.5922 54.3548 25.4102 54.1535 25.1741 54.0411C24.938 53.9287 24.6671 53.9142 24.4204 54.0009C24.303 54.0527 24.1972 54.1274 24.1091 54.2208C24.0211 54.3142 23.9527 54.4243 23.908 54.5445C23.8632 54.6648 23.843 54.7928 23.8486 54.921C23.8542 55.0492 23.8854 55.175 23.9404 55.2909C24.0843 55.7543 24.2859 56.1978 24.5404 56.6109C24.7773 56.968 25.0833 57.274 25.4404 57.5109C25.892 57.768 26.3935 57.9252 26.9111 57.9717C27.4286 58.0183 27.9502 57.9532 28.4404 57.7809C29.6656 57.4458 30.7756 56.7818 31.6504 55.8609C32.4967 54.8738 33.0752 53.6858 33.3304 52.4109C33.4959 51.682 33.5864 50.9382 33.6004 50.1909C36.7504 50.1909 42.1204 50.5509 46.4404 50.1909C48.9294 50.2417 51.3956 49.7074 53.6404 48.6309C55.276 46.7972 56.1831 44.428 56.1904 41.9709C57.0004 30.8109 54.4804 31.6809 37.3204 30.8409ZM23.7604 30.8409L17.5804 31.0809C17.673 29.9663 17.8638 28.862 18.1504 27.7809C18.321 27.0871 18.7101 26.4665 19.2604 26.0109C20.018 25.5432 20.8901 25.294 21.7804 25.2909C23.3944 25.2181 25.0116 25.2984 26.6104 25.5309H29.6104C30.8832 25.4562 32.1597 25.5879 33.3904 25.9209C33.9372 26.0903 34.4195 26.4221 34.7732 26.8723C35.1269 27.3224 35.3352 27.8695 35.3704 28.4409V30.7209C31.5004 30.6009 27.6304 30.6009 23.7604 30.6909V30.8409Z" fill="#86B643" style="fill:#86B643;fill:color(display-p3 0.5255 0.7137 0.2627);fill-opacity:1;"/>
<path fill-rule="evenodd" clip-rule="evenodd" d="M51.181 51.0009C51.0549 50.9969 50.9293 51.0178 50.8112 51.0624C50.6932 51.107 50.5852 51.1744 50.4932 51.2607C50.4013 51.3471 50.3273 51.4507 50.2754 51.5657C50.2235 51.6807 50.1949 51.8048 50.191 51.9309L49.591 62.9109C49.635 63.9482 49.5443 64.9869 49.321 66.0009C49.2286 66.5067 48.9762 66.9694 48.601 67.3209C47.7119 67.9404 46.6792 68.3225 45.601 68.4309C43.7549 68.7174 41.8891 68.8579 40.021 68.8509H32.761C27.031 68.6409 21.271 68.2509 15.511 68.2209C13.263 68.3576 11.0089 68.3576 8.76097 68.2209C7.50387 68.1908 6.29156 67.7481 5.31097 66.9609C4.98612 66.616 4.78554 66.1726 4.74097 65.7009C4.64231 64.7033 4.64231 63.6985 4.74097 62.7009V54.7809V51.4209C4.76855 51.3067 4.77335 51.1881 4.75511 51.072C4.73687 50.9559 4.69593 50.8445 4.63465 50.7442C4.57336 50.6439 4.49292 50.5567 4.39792 50.4875C4.30292 50.4183 4.19522 50.3685 4.08097 50.3409C3.96672 50.3133 3.84816 50.3085 3.73205 50.3268C3.61595 50.345 3.50457 50.3859 3.40428 50.4472C3.304 50.5085 3.21676 50.589 3.14756 50.684C3.07836 50.779 3.02855 50.8867 3.00097 51.0009L2.49097 62.4909C2.34159 63.6546 2.30142 64.8297 2.37097 66.0009C2.45 67.0003 2.84987 67.9473 3.51097 68.7009C4.51595 69.72 5.79973 70.4193 7.20097 70.7109C9.96327 71.1953 12.7678 71.3964 15.571 71.3109C21.271 71.3109 27.001 71.8809 32.731 72.0009H40.231C42.2464 71.9339 44.253 71.7031 46.231 71.3109C47.7372 71.0336 49.1501 70.3839 50.341 69.4209C51.0997 68.6876 51.6042 67.7311 51.781 66.6909C51.9816 65.4516 52.0519 64.1948 51.991 62.9409V52.0509C52.0169 51.8053 51.9473 51.5591 51.7964 51.3636C51.6455 51.168 51.4251 51.0381 51.181 51.0009Z" fill="#86B643" style="fill:#86B643;fill:color(display-p3 0.5255 0.7137 0.2627);fill-opacity:1;"/>
<path fill-rule="evenodd" clip-rule="evenodd" d="M70.7108 15.4505C69.8708 13.5305 68.5508 11.5805 67.7108 10.0205C67.1708 8.97049 66.6608 7.53049 65.9708 6.36049C65.5992 5.69842 65.123 5.10072 64.5608 4.59049C63.5838 3.8672 62.4555 3.37485 61.2608 3.15049C58.9808 2.64049 56.0708 2.52049 54.6608 2.22049C52.3508 1.74049 50.1008 1.0205 47.7908 0.540495C46.7246 0.285496 45.642 0.105059 44.5508 0.000495013C43.6131 -0.0919619 42.6685 -0.0919619 41.7308 0.000495018C41.1207 0.0616342 40.5394 0.290025 40.0508 0.660495C39.4908 1.12324 39.1177 1.77348 39.0008 2.49049C38.6408 3.99049 38.6108 6.4505 38.4008 7.2605C37.9567 8.79152 37.395 10.286 36.7208 11.7305C35.6408 13.9505 34.3808 16.0805 33.1208 18.1505C33.0591 18.2429 33.0164 18.3466 32.9951 18.4556C32.9738 18.5646 32.9743 18.6768 32.9966 18.7856C33.0189 18.8944 33.0626 18.9977 33.1251 19.0895C33.1876 19.1813 33.2677 19.2598 33.3608 19.3205C33.5521 19.4466 33.7855 19.4921 34.0101 19.4471C34.2348 19.4022 34.4327 19.2705 34.5608 19.0805C35.9408 17.0105 37.3508 14.8805 38.5508 12.6305C39.3597 11.1195 40.0421 9.54415 40.5908 7.9205L41.6708 2.7605H44.2808C45.2337 2.86512 46.1767 3.04569 47.1008 3.3005C49.4108 3.8705 51.6608 4.65049 53.9408 5.22049C55.1708 5.49049 57.5408 5.64049 59.6408 6.03049C60.2302 6.12815 60.8117 6.26852 61.3808 6.4505C61.1108 7.0805 60.8408 7.71049 60.5408 8.31049C60.0008 9.45049 59.4308 10.5305 58.8008 11.6105C58.1708 12.6905 57.8408 13.1705 57.4508 13.9505C57.0695 14.6864 56.8447 15.4934 56.7908 16.3205C56.7614 17.1668 57.0263 17.9972 57.5406 18.6701C58.0548 19.3429 58.7864 19.8166 59.6108 20.0105L61.3808 20.4005H64.6208L68.4608 19.8605C68.4608 20.1005 68.4608 20.3705 68.2508 20.6405C67.8008 21.9905 67.1408 23.4305 66.8408 24.3905C65.6993 28.3414 64.3167 32.2187 62.7008 36.0005C61.6106 38.4529 60.337 40.8196 58.8908 43.0805C58.8199 43.1869 58.7706 43.3062 58.7458 43.4316C58.721 43.557 58.7211 43.6861 58.7462 43.8114C58.7713 43.9368 58.8208 44.056 58.8919 44.1622C58.9631 44.2684 59.0544 44.3596 59.1608 44.4305C59.2672 44.5014 59.3865 44.5507 59.5119 44.5755C59.6373 44.6003 59.7664 44.6002 59.8917 44.5751C60.0171 44.55 60.1363 44.5005 60.2425 44.4294C60.3487 44.3582 60.4399 44.2669 60.5108 44.1605C62.1082 41.8707 63.513 39.4524 64.7108 36.9305C66.521 33.1893 68.1039 29.3423 69.4508 25.4105C69.8408 24.3005 70.7408 22.5905 71.2208 21.0605C71.5159 20.2341 71.6384 19.3561 71.5808 18.4805C71.4491 17.4316 71.1556 16.4095 70.7108 15.4505ZM64.5308 18.0005L61.8608 17.7005L60.8108 17.3105C60.3308 17.1005 60.0608 16.9505 60.0608 16.6505C60.1196 16.0721 60.293 15.5112 60.5708 15.0005C60.9008 14.3105 61.2308 13.5605 61.5008 12.8705C61.7708 12.1805 62.1908 10.9205 62.4908 9.87049C62.7908 8.82049 62.8808 8.49049 63.0608 7.80049C63.0608 7.95049 63.2708 8.10049 63.3608 8.28049C63.9008 9.36049 64.3808 10.5605 64.8608 11.2805C65.3408 12.0005 66.6908 14.2805 67.5308 15.7205C67.8448 16.2997 68.1155 16.9014 68.3408 17.5205L64.5308 18.0005Z" fill="#86B643" style="fill:#86B643;fill:color(display-p3 0.5255 0.7137 0.2627);fill-opacity:1;"/>
<path fill-rule="evenodd" clip-rule="evenodd" d="M19.2299 21.0008C19.193 21.1091 19.1787 21.2237 19.1877 21.3376C19.1967 21.4516 19.2288 21.5625 19.2822 21.6637C19.3355 21.7648 19.409 21.8539 19.498 21.9256C19.587 21.9974 19.6897 22.0502 19.7999 22.0808C19.9174 22.1462 20.0494 22.1813 20.1838 22.1829C20.3183 22.1845 20.4511 22.1527 20.5702 22.0901C20.6892 22.0276 20.7909 21.9365 20.8659 21.8248C20.9409 21.7132 20.987 21.5847 20.9999 21.4508C21.8032 19.427 22.3963 17.326 22.7699 15.1808C23.059 13.0514 23.2392 10.9086 23.3099 8.76083C23.3099 8.31083 22.8299 6.84083 22.7699 5.94083C26.0957 6.10351 29.4104 6.44399 32.6999 6.96083C32.9543 7.01454 33.2197 6.96597 33.4386 6.82563C33.6575 6.6853 33.8125 6.46446 33.8699 6.21083C33.891 6.0784 33.885 5.94306 33.8522 5.81302C33.8194 5.68299 33.7606 5.56096 33.6792 5.45436C33.5979 5.34775 33.4957 5.25878 33.3789 5.19286C33.2622 5.12693 33.1332 5.08542 32.9999 5.07083C29.6069 4.11945 26.161 3.36815 22.6799 2.82083C22.2036 2.74706 21.7165 2.79657 21.2648 2.96463C20.8131 3.13269 20.4121 3.4137 20.0999 3.78083C19.8747 4.24958 19.752 4.76094 19.7399 5.28083C19.7399 6.39083 19.9199 8.04083 19.7399 8.70083C19.907 11.168 19.907 13.6437 19.7399 16.1108C19.6917 17.7512 19.5212 19.3858 19.2299 21.0008Z" fill="#86B643" style="fill:#86B643;fill:color(display-p3 0.5255 0.7137 0.2627);fill-opacity:1;"/>
<path fill-rule="evenodd" clip-rule="evenodd" d="M47.4597 13.2301C48.2527 13.5744 49.0639 13.8749 49.8897 14.1301C51.1497 14.5501 52.4097 14.8201 53.6097 15.2701C53.8232 15.4 54.0779 15.4444 54.3228 15.3943C54.5676 15.3443 54.7844 15.2034 54.9297 15.0001C54.9926 14.8883 55.0324 14.765 55.0468 14.6374C55.0612 14.5099 55.0499 14.3808 55.0135 14.2578C54.9772 14.1347 54.9165 14.0202 54.8351 13.921C54.7537 13.8218 54.6533 13.7399 54.5397 13.6801C53.4891 12.8547 52.3757 12.1125 51.2097 11.4601C50.7182 11.1742 50.2069 10.9236 49.6797 10.7101C49.1397 10.5101 48.5997 10.3301 48.0597 10.1701C46.7397 9.84015 45.4497 9.72015 44.1597 9.51015C43.9565 9.47383 43.7469 9.51099 43.5685 9.61499C43.3902 9.71899 43.2546 9.88304 43.186 10.0778C43.1175 10.2726 43.1205 10.4854 43.1944 10.6782C43.2684 10.871 43.4085 11.0312 43.5897 11.1301C44.9997 11.7301 46.0797 12.5701 47.4597 13.2301Z" fill="#86B643" style="fill:#86B643;fill:color(display-p3 0.5255 0.7137 0.2627);fill-opacity:1;"/>
<path fill-rule="evenodd" clip-rule="evenodd" d="M40.4404 17.4005C40.4213 17.621 40.4842 17.8409 40.617 18.018C40.7498 18.1951 40.9433 18.317 41.1604 18.3605C42.6202 18.8525 44.0523 19.4233 45.4504 20.0705C46.4315 20.4636 47.4329 20.8041 48.4504 21.0905C50.1304 21.6305 51.8404 21.9905 53.6104 22.3805C53.7282 22.4279 53.8545 22.4507 53.9815 22.4474C54.1084 22.4442 54.2334 22.4149 54.3487 22.3615C54.4639 22.3081 54.567 22.2317 54.6516 22.1369C54.7361 22.0421 54.8004 21.931 54.8404 21.8105C54.8882 21.6905 54.9113 21.5622 54.9084 21.4331C54.9054 21.304 54.8765 21.1769 54.8233 21.0593C54.7701 20.9416 54.6937 20.8359 54.5987 20.7485C54.5037 20.6611 54.392 20.5937 54.2704 20.5505C52.8004 19.8305 51.4804 19.0205 50.0704 18.3305C49.1054 17.864 48.1016 17.4826 47.0704 17.1905C45.2603 16.7795 43.4057 16.598 41.5504 16.6505C41.4275 16.6085 41.2966 16.5957 41.168 16.6129C41.0393 16.63 40.9164 16.6768 40.8089 16.7495C40.7013 16.8221 40.6121 16.9187 40.5481 17.0317C40.4842 17.1446 40.4473 17.2708 40.4404 17.4005Z" fill="#86B643" style="fill:#86B643;fill:color(display-p3 0.5255 0.7137 0.2627);fill-opacity:1;"/>
</g>
<defs>
<clipPath id="clip0_167_482">
<rect width="72" height="72" fill="white" style="fill:white;fill-opacity:1;"/>
</clipPath>
</defs>
</svg>
