<svg width="72" height="72" viewBox="0 0 72 72" fill="none" xmlns="http://www.w3.org/2000/svg">
<g clip-path="url(#clip0_167_490)">
<path d="M35.3098 40.2901C35.7802 40.2515 36.2227 40.0511 36.5618 39.7228C36.901 39.3946 37.1159 38.9589 37.1698 38.4901C37.4183 31.489 37.3082 24.4798 36.8398 17.4901C36.4798 16.7101 36.8398 16.7101 35.7598 16.0501C33.5998 14.7001 19.0198 10.1701 17.3098 12.0001C15.8098 15.8701 16.4698 32.3101 16.6798 33.0001C17.4598 35.4901 32.0698 40.8301 35.3098 40.2901ZM18.6298 13.6501H19.6798C24.5838 14.6157 29.378 16.0731 33.9898 18.0001C33.9898 18.7201 34.7398 18.3601 33.9898 36.9001C28.8468 35.8601 23.8637 34.1452 19.1698 31.8001C19.1398 31.6201 18.4498 21.8701 18.6298 13.6501Z" fill="#86B643" style="fill:#86B643;fill:color(display-p3 0.5255 0.7137 0.2627);fill-opacity:1;"/>
<path d="M49.5009 12.2997C49.5009 12.5397 50.8509 29.2197 50.7009 30.2997C50.7009 30.2997 45.7809 33.5097 44.9109 33.9597C42.4209 35.3097 39.4209 36.5997 38.3409 36.9597C37.7409 37.6797 37.6509 39.0597 39.2109 38.6397C43.6854 37.2234 47.9756 35.2798 51.9909 32.8497C53.4704 33.1379 54.9326 33.5085 56.3709 33.9597C61.6809 35.3397 64.1409 34.8297 64.7709 35.3097C65.6709 36.2997 69.1509 34.2597 61.1109 31.6497C58.6949 30.9518 56.1843 30.638 53.6709 30.7197C53.9345 24.1027 53.5022 17.4763 52.3809 10.9497C52.3336 10.6699 52.2317 10.4022 52.081 10.1619C51.9303 9.92156 51.7337 9.71325 51.5025 9.54889C51.2713 9.38452 51.0099 9.26732 50.7334 9.20396C50.4569 9.14061 50.1706 9.13235 49.8909 9.17965C45.6307 10.32 41.5798 12.1328 37.8909 14.5497C37.1709 15.3897 37.2909 16.4697 38.3109 16.5597C41.8531 14.6886 45.6111 13.2579 49.5009 12.2997Z" fill="#86B643" style="fill:#86B643;fill:color(display-p3 0.5255 0.7137 0.2627);fill-opacity:1;"/>
<path d="M10.6202 37.1692C12.3558 36.5134 13.9994 35.6362 15.5102 34.5592C15.7099 34.483 15.876 34.3382 15.9786 34.1507C16.0813 33.9632 16.1139 33.7453 16.0706 33.536C16.0273 33.3267 15.9109 33.1396 15.7423 33.0083C15.5736 32.8769 15.3637 32.8099 15.1502 32.8192C9.15018 32.8192 5.16018 36.6592 5.88018 37.9492C6.60018 39.2392 8.46018 37.9192 10.6202 37.1692Z" fill="#86B643" style="fill:#86B643;fill:color(display-p3 0.5255 0.7137 0.2627);fill-opacity:1;"/>
<path d="M22.3798 10.5595C24.4498 9.56953 33.5398 6.59953 33.7798 6.53953C38.0387 6.78855 42.2716 7.37032 46.4398 8.27953C46.5989 8.44662 46.8179 8.54365 47.0485 8.54927C47.2792 8.5549 47.5027 8.46866 47.6698 8.30953C47.8368 8.1504 47.9339 7.93141 47.9395 7.70074C47.9451 7.47007 47.8589 7.24662 47.6998 7.07953C43.131 4.76647 38.1168 3.46688 32.9998 3.26953C29.3594 4.49345 25.8436 6.06049 22.4998 7.94953C21.3298 8.57953 19.3198 9.59953 19.7998 10.9495C20.2798 12.2995 21.9898 10.7395 22.3798 10.5595Z" fill="#86B643" style="fill:#86B643;fill:color(display-p3 0.5255 0.7137 0.2627);fill-opacity:1;"/>
<path d="M55.5607 64.1998C55.805 57.5668 55.6548 50.925 55.1107 44.3098C55.1107 43.4998 55.1107 43.4998 54.0307 42.8998C51.8407 41.7598 37.1107 39.0898 35.4307 40.9198C35.2507 41.3398 34.8907 40.2298 34.7107 46.9198C34.4707 56.1298 34.7107 59.3098 35.8207 60.9598C38.0107 62.8198 50.1907 67.9798 53.5807 67.1698C54.4507 67.0198 55.6507 67.1398 55.5607 64.1998ZM52.2007 63.8698C47.9372 63.0159 43.7746 61.7188 39.7807 59.9998C39.035 59.7626 38.3037 59.4821 37.5907 59.1598C36.9211 53.6363 36.6404 48.0726 36.7507 42.5098C37.0207 41.4298 50.7907 44.3998 52.2907 45.2698C52.7107 48.1798 52.2607 62.7598 52.2007 63.8698Z" fill="#86B643" style="fill:#86B643;fill:color(display-p3 0.5255 0.7137 0.2627);fill-opacity:1;"/>
<path d="M30.4805 61.2591C29.1305 61.8591 27.6905 62.6091 26.4005 63.2991C24.4205 64.3491 24.1805 64.4991 23.4005 64.8291C21.8105 65.8491 21.0005 67.4691 23.4005 67.4691C26.966 66.6008 30.3419 65.0857 33.3605 62.9991C35.2505 60.8691 34.8305 59.1291 33.3605 59.9991L30.4805 61.2591Z" fill="#86B643" style="fill:#86B643;fill:color(display-p3 0.5255 0.7137 0.2627);fill-opacity:1;"/>
<path d="M21.1804 64.5294C21.2704 59.9994 21.0004 47.9994 21.0004 46.3794C20.8885 45.8308 20.614 45.3285 20.2127 44.9379C19.8114 44.5473 19.3019 44.2865 18.7504 44.1894C16.4104 43.7994 3.0004 38.8194 1.1104 40.7694L0.690402 41.9994C-0.569598 43.2894 0.210402 60.8094 0.510402 61.7394C1.1704 63.8694 11.2804 67.3194 13.4104 67.9794C15.3548 68.5593 17.384 68.8028 19.4104 68.6994C19.794 68.6731 20.158 68.5205 20.4457 68.2654C20.7333 68.0103 20.9284 67.6671 21.0004 67.2894C21.0004 66.6594 21.1804 64.5294 21.1804 64.5294ZM17.7604 65.6394C13.494 64.7548 9.33148 63.4276 5.3404 61.6794C4.2304 61.1994 2.6704 60.8694 3.0004 60.5094C3.0377 60.1404 3.0377 59.7685 3.0004 59.3994C3.0004 59.3994 1.3804 41.9994 3.5104 42.3294C8.41557 43.3184 13.2095 44.7957 17.8204 46.7394C17.8204 47.4594 18.5404 47.1594 17.7604 65.6394Z" fill="#86B643" style="fill:#86B643;fill:color(display-p3 0.5255 0.7137 0.2627);fill-opacity:1;"/>
<path d="M31.7711 42.3595C31.8932 42.3103 32.0044 42.2374 32.0984 42.1452C32.1924 42.053 32.2673 41.9431 32.3188 41.822C32.3704 41.7008 32.3975 41.5706 32.3988 41.439C32.4 41.3073 32.3753 41.1766 32.3261 41.0545C32.2768 40.9324 32.204 40.8212 32.1118 40.7272C32.0195 40.6332 31.9097 40.5583 31.7885 40.5067C31.6673 40.4552 31.5372 40.428 31.4055 40.4268C31.2738 40.4256 31.1432 40.4503 31.0211 40.4995C28.4653 40.9844 25.9485 41.6562 23.4911 42.5095C22.8049 42.8545 22.1606 43.2773 21.5711 43.7695C20.5811 44.9995 21.1811 45.2695 22.9511 45.5395C26.1059 45.2126 29.1334 44.121 31.7711 42.3595Z" fill="#86B643" style="fill:#86B643;fill:color(display-p3 0.5255 0.7137 0.2627);fill-opacity:1;"/>
<path d="M70.68 37.9493C70.5913 37.3849 70.2827 36.8787 69.8217 36.5413C69.3606 36.204 68.7847 36.063 68.22 36.1493C63.7539 37.4658 59.5077 39.4372 55.62 41.9993C54.36 42.8093 55.11 44.4293 56.64 43.6493C60.1872 41.7899 63.9302 40.331 67.8 39.2993C67.8 40.9793 67.98 38.9093 68.58 50.5193C69 58.3193 69.18 56.9393 68.4 57.5693C65.0155 60.0028 61.3488 62.0175 57.48 63.5693C55.83 64.7693 55.59 66.1493 57.48 65.9693C62.67 63.8993 71.31 59.9693 71.91 58.1093C72.2374 51.3645 71.8249 44.6042 70.68 37.9493Z" fill="#86B643" style="fill:#86B643;fill:color(display-p3 0.5255 0.7137 0.2627);fill-opacity:1;"/>
</g>
<defs>
<clipPath id="clip0_167_490">
<rect width="72" height="72" fill="white" style="fill:white;fill-opacity:1;"/>
</clipPath>
</defs>
</svg>
